HIERARCHY
ROOT Hip
{
    OFFSET 0.0 0.0 0.0
    CHANNELS 6 Xposition Yposition Zposition Zrotation Xrotation Yrotation
    JOINT RightHip
    {
        OFFSET -11.743134170626057 0.0 0.0
        CHANNELS 3 Zrotation Xrotation Yrotation
        JOINT RightKnee
        {
            OFFSET 0.0 0.0 -41.105171352274766
            CHANNELS 3 Zrotation Xrotation Yrotation
            JOINT RightAnkle
            {
                OFFSET 0.0 0.0 -40.82174991574395
                CHANNELS 3 Zrotation Xrotation Yrotation
                End Site
                {
                    OFFSET 0.0 -16.328699966297584 0.0
                }
            }
        }
    }
    JOINT LeftHip
    {
        OFFSET 11.743134170626057 0.0 0.0
        CHANNELS 3 Zrotation Xrotation Yrotation
        JOINT LeftKnee
        {
            OFFSET 0.0 0.0 -41.105171352274766
            CHANNELS 3 Zrotation Xrotation Yrotation
            JOINT LeftAnkle
            {
                OFFSET 0.0 0.0 -40.82174991574395
                CHANNELS 3 Zrotation Xrotation Yrotation
                End Site
                {
                    OFFSET 0.0 -16.328699966297584 0.0
                }
            }
        }
    }
    JOINT Spine
    {
        OFFSET 0.0 0.0 21.48519989247739
        CHANNELS 3 Zrotation Xrotation Yrotation
        JOINT Thorax
        {
            OFFSET 0.0 0.0 21.566011890439988
            CHANNELS 3 Zrotation Xrotation Yrotation
            JOINT Neck
            {
                OFFSET 0.0 0.0 4.151720088021989
                CHANNELS 3 Zrotation Xrotation Yrotation
                JOINT Head
                {
                    OFFSET 0.0 0.0 16.520813322245417
                    CHANNELS 3 Zrotation Xrotation Yrotation
                    End Site
                    {
                        OFFSET -6.608325328898167 0.0 0.0
                    }
                }
            }
            JOINT LeftShoulder
            {
                OFFSET 13.582456303719063 0.0 0.0
                CHANNELS 3 Zrotation Xrotation Yrotation
                JOINT LeftElbow
                {
                    OFFSET 26.76553204145541 0.0 0.0
                    CHANNELS 3 Zrotation Xrotation Yrotation
                    JOINT LeftWrist
                    {
                        OFFSET 22.724705992289508 0.0 0.0
                        CHANNELS 3 Zrotation Xrotation Yrotation
                        End Site
                        {
                            OFFSET 9.089882396915804 0.0 0.0
                        }
                    }
                }
            }
            JOINT RightShoulder
            {
                OFFSET -13.582456303719063 0.0 0.0
                CHANNELS 3 Zrotation Xrotation Yrotation
                JOINT RightElbow
                {
                    OFFSET -26.76553204145541 0.0 0.0
                    CHANNELS 3 Zrotation Xrotation Yrotation
                    JOINT RightWrist
                    {
                        OFFSET -22.724705992289508 0.0 0.0
                        CHANNELS 3 Zrotation Xrotation Yrotation
                        End Site
                        {
                            OFFSET -9.089882396915804 0.0 0.0
                        }
                    }
                }
            }
            JOINT Nose
            {
                OFFSET 0.0 0.0 15.532346910793125
                CHANNELS 3 Zrotation Xrotation Yrotation
                End Site
                {
                    OFFSET -6.212938764317251 0.0 0.0
                }
            }
        }
    }
}
MOTION
Frames: 10
Frame Time: 0.03333333333333333
0.5071521702104226 -9.782563520432632 73.50842610585889 -149.07706831963924 -76.20879521098207 163.69996786761382 -17.456957804678677 1.9731288405841203 1.1820202638650115 -4.246883442103459 43.447668460710695 15.239129786184792 0.0 0.0 -1.5902773407317584e-15 17.75699904427207 -23.466755051645713 6.7175935559314714 -33.71947221031085 67.06976980894902 16.00935653051899 0.0 0.0 0.0 -8.456279136993847e-16 6.062143896552214 1.5969829809105515e-14 4.367666712798086 1.8049334923006166 15.49505609688955 -142.4025148385959 25.469959463212287 -48.528576669015614 1.9878466759146975e-16 6.3611093629270335e-15 7.951386703658792e-16 -44.24543948014129 47.187773704074694 -25.180631749843407 1.7230046574030233e-15 9.90911377310617e-15 -56.59792545995159 0.0 0.0 -7.951386703658792e-16 51.45588639371317 -23.845199633959286 26.992588939691792 7.217051613577871e-15 -7.183483058043144e-15 167.58673618347686 1.590277340731758e-15 0.0 0.0 0.0 0.0 3.1805546814635168e-15
0.5123865423964079 -9.883530412436153 72.80143569815577 -149.49332108884633 -74.61359414203429 165.55984943020954 -16.256509550750696 3.5210724519914094 1.631164221092953 -5.065950126554653 45.37681385859156 15.387172097232254 0.0 0.0 0.0 16.00794311171801 -20.717071274834623 5.173284765510952 -34.43536371717684 64.71775431495985 17.640147926647245 0.0 0.0 3.1805546814635168e-15 9.402754422019157e-15 6.7721439150716405 2.6297841628598385e-15 4.332064578897544 1.578327029068831 17.64412779907486 -141.04586771350017 28.962526955439117 -46.066940180015294 0.0 0.0 0.0 -39.67576659424087 48.54474665932733 -26.389555453760316 6.869056972799948e-15 -7.346790940419046e-15 -56.97958681966117 0.0 0.0 7.951386703658792e-16 73.19123483117303 -55.326147074303584 44.05844705518214 -7.389943861501811e-16 4.1838060005932465e-16 162.07947672611022 -7.951386703658792e-16 0.0 0.0 -1.5902773407317584e-15 -3.975693351829396e-16 -5.517382872562698e-33
0.5190551028553518 -10.012161659843413 71.90073393103941 -149.95091631712697 -72.89752132207796 167.03586471082093 -13.287561737327392 4.342417965035212 1.7036117890041835 -8.496708404775468 47.67087147574091 16.261854359102912 0.0 0.0 1.5902773407317584e-15 13.327171344806885 -16.6754011917296 3.1686896592571316 -35.31163471711192 60.157663033092035 19.770768320293527 -3.1805546814635164e-15 -7.951386703658792e-16 3.1805546814635164e-15 -6.9931555579384e-15 7.0980235858269545 9.993722577013791e-15 3.861603200840663 0.9935293705317011 21.280658723224686 -137.90868545296695 33.23137437633456 -43.61394834675539 1.987846675914698e-16 3.1805546814635168e-15 -5.517382872562698e-33 -47.08525609768307 44.824199919205746 -20.17510291704435 -5.5639374853906825e-15 3.0832307707634186e-15 -57.98566007761031 0.0 0.0 1.5902773407317584e-15 61.43693185819515 -34.67483081995074 31.41481237251522 9.974327003510912e-15 1.2930899600677354e-15 157.90356309329638 0.0 0.0 0.0 0.0 0.0 -1.5902773407317584e-15
0.5194627303538282 -10.020024471304643 71.84567694978188 -150.26000024964677 -72.0195666828964 168.16979826356345 -9.717588132378504 2.7824574463674043 1.2264149909364594 -11.826640656331204 51.588977428556966 17.025234950675134 -3.1805546814635176e-15 7.951386703658794e-16 2.2069531490250793e-32 9.689878072050352 -13.309924885622372 1.4714766471219978 -34.753918322057714 56.78263193481127 21.575637945854435 0.0 0.0 -1.5902773407317584e-15 6.1937983905515235e-15 7.422524419587861 2.7854810428073263e-15 4.077673012537582 0.9829812449338468 23.118464386895425 -137.6971488911849 35.96897751858179 -40.70733645153527 -1.987846675914698e-16 0.0 0.0 -56.51619817918937 36.54616298681827 -12.84516697852066 7.679546978340355e-16 1.3925615255777777e-15 -57.75075896502897 0.0 0.0 -3.1805546814635168e-15 55.42803992299237 -7.047371975416222 39.15852262001183 5.9551588856890926e-15 -2.2360221316695894e-15 138.8400474567001 0.0 0.0 0.0 0.0 0.0 0.0
0.5245705899221319 -10.118551035155585 71.15577420875134 -149.58806817654985 -71.88366984316907 170.11480603848835 -10.121900572441298 3.894178874776124 1.5040780594742325 -9.901079162488442 50.104000195604456 15.239079232876229 0.0 0.0 0.0 7.840031071860671 -11.405318449573072 0.6567926376863421 -29.824913165544483 54.12174874061321 18.43622067184918 0.0 0.0 0.0 2.7623853924692257e-15 7.873156266948703 6.186060565944328e-15 2.27430597947132 0.42230620722744827 25.858040480528853 -137.59458179871322 38.965369872692776 -37.33435993498272 1.3914926731402886e-15 -9.655420026984722e-33 -7.951386703658792e-16 -57.34270369806504 33.42692632915802 -12.641138380188671 9.193301271419215e-16 4.944153347316196e-15 -57.93678719819076 -2.3854160110976376e-15 6.620859447075238e-32 -3.1805546814635168e-15 -50.87854259587671 69.65063078282458 121.19743084788485 1.9685276068241755e-15 1.2669204015647066e-14 41.8258934735181 0.0 0.0 0.0 1.590277340731758e-15 -6.361109362927032e-15 1.590277340731758e-15
0.52234106714727 -10.075545307394847 71.45690893123118 -152.3985613235493 -71.39103695141871 171.33844866718317 -11.429739174206606 9.187641491089758 2.567396893271813 -12.444416720815456 44.84221147143465 16.735527422310916 0.0 0.0 1.5902773407317584e-15 6.94703955138334 -9.149428135711677 0.23022846664877086 -27.66557774259964 51.04741342985563 16.770804506083525 0.0 0.0 1.5902773407317584e-15 -2.737185569299147e-15 8.366586808990741 -6.1778980320369186e-15 -1.060641486407967 -0.9339599345030399 31.481302503862466 -140.80326423840654 45.01694209298187 -24.72065500606548 7.951386703658792e-16 -1.1034765745125397e-32 -1.5902773407317584e-15 -60.946696450974045 28.063778011669402 -12.261653427991936 2.4794642620682157e-15 4.983200449869161e-15 -52.90662618371424 1.590277340731758e-15 -5.517382872562698e-32 -3.975693351829395e-15 74.79223659579391 -32.21119066941724 66.25210598233377 6.846938157181992e-15 -1.923298801700536e-15 95.48988748724429 0.0 0.0 0.0 -3.8825130388958945e-19 -7.603281260350321e-37 2.244092536481827e-16
0.5008275440881524 -9.660566493862827 74.36267372942787 -154.1973367449891 -69.97312157124463 174.7092028750667 -10.984558456687981 16.155188777793843 3.4879833306571815 -17.932016533744118 38.27370756614695 18.108002410007693 0.0 0.0 7.951386703658792e-16 7.896252324443555 -8.893031364228177 0.5894670394215238 -23.80138333928292 51.13195498241256 12.922439420862563 -8.827812596100317e-32 6.3611093629270335e-15 1.5902773407317584e-15 3.210544048973169e-15 9.040412464323042 -2.538145886702443e-16 1.1561078097422874 -0.093277385826228 31.067317144148593 -143.68413496358897 49.776379393189046 -19.134264035011753 1.5902773407317582e-15 -3.1805546814635164e-15 7.951386703658792e-16 -69.691676325522 19.545632452171706 -7.979371405723484 -6.694946878449297e-15 6.501963197862379e-16 -49.03486653242846 -2.5842006786891076e-15 -2.2414367919785962e-32 9.93923337957349e-16 93.81324416098565 -25.51761192891118 95.37461650123672 -8.74863023028202e-15 -5.505538979754071e-15 64.3646581073365 9.54166404439055e-15 -3.1805546814635168e-15 2.648343778830095e-31 1.9878466759146977e-16 -6.361109362927033e-15 1.1034765745125397e-32
0.5065480899351111 -9.770911290565959 73.5900173540455 -154.8067277667876 -71.5270886254328 -177.50583927577588 -8.479712226608251 22.01153164690935 2.2062845238011866 -18.59557935044675 28.361650788243878 13.041470350776384 -7.454425034680117e-16 -8.728672122608957e-33 1.341796506242421e-15 4.799811717740725 -5.391035361791927 1.1437473595039838 -4.657012078220302 40.324033366775986 0.5057056696244686 0.0 0.0 0.0 8.154188410072976e-15 6.065907775871906 -3.617061876937947e-15 -1.2105696663487258 -2.6513537371264775 27.32916559701001 -144.30568831252975 52.50200737273659 -9.877559096110886 3.975693351829396e-16 0.0 0.0 -73.2216656440296 14.428109007955864 1.5641033819709171 1.651291311343906e-15 -1.2714443296267317e-14 -44.68999796979998 -2.3854160110976376e-15 0.0 0.0 93.29612230145273 -40.665932691747344 102.41392685058385 9.750050437048541e-15 -2.9367974586697983e-15 43.794127443637926 3.1805546814635168e-15 3.1805546814635168e-15 6.3611093629270335e-15 0.0 0.0 0.0
0.5088647648758138 -9.81559811455059 73.27711125897869 -168.66293959300154 -78.75169644435783 -167.9292694301086 -1.7434274095088622 22.77754957767721 -2.9205085796607677 -16.2467526900219 23.667870591262712 7.534935686662156 -1.5902773407317584e-15 0.0 0.0 -2.9060971208484356 2.8642106347147998 3.918151052506154 7.016686291659677 22.64137722411562 -1.2320697343750278 0.0 0.0 1.9878466759146985e-16 5.967050184088648e-16 -2.2692549189344424 1.1818085393353902e-17 -5.064574597290901 -1.565593944926251 14.574492165341562 -158.73957389351753 56.74017013836295 8.130075182011169 1.1927080055488188e-15 0.0 0.0 -77.73966408865988 14.888556112713387 14.095664317845905 -1.3774725529313712e-14 1.629336368808327e-14 -46.44624545161644 -1.5902773407317584e-15 0.0 0.0 137.78174282290195 -28.245832840712087 145.2294634655029 3.3158974120846083e-16 1.3109570001864164e-14 25.174658457583078 -3.1805546814635168e-15 -4.770832022195275e-15 3.1805546814635168e-15 -1.5902773407317588e-15 -6.361109362927035e-15 -1.5902773407317588e-15
0.5090385012986453 -9.818949352486646 73.25364521949083 -154.9233486521042 -82.14118779484025 -111.32174218142605 14.999052473202974 13.20641411156156 -11.312165962864402 -6.338022890892708 28.102757725251596 -3.2735867623565773 0.0 0.0 -1.5902773407317584e-15 6.020996368261916 -0.5012459716286726 7.272292423482448 15.62975873194598 25.041815467320134 -9.208672457131643 0.0 0.0 -1.5902773407317584e-15 3.5414785791810488e-15 -6.214232243407584 6.5627150715596115e-15 -9.902387663544769 2.866021205613932 -20.434773054252187 -168.51295744296536 54.60093463021764 20.093289999985963 0.0 0.0 7.951386703658792e-16 -76.42882006710177 12.365551212030587 22.890925952003677 -3.486956533686108e-15 -7.146025793635619e-15 -52.02081383673858 9.541664044390553e-15 -2.648343778830095e-31 -3.1805546814635176e-15 155.158097674472 3.0782507838883553 163.08538577086637 -1.4921972088260259e-15 -6.9536312742961325e-15 28.906977241377042 -1.5902773407317584e-15 2.2069531490250793e-32 -1.5902773407317584e-15 0.0 0.0 0.0
